<?xml version="1.0" standalone="no"?>
<!DOCTYPE svg PUBLIC "-//W3C//DTD SVG 20010904//EN"
 "http://www.w3.org/TR/2001/REC-SVG-20010904/DTD/svg10.dtd">
<svg version="1.0" xmlns="http://www.w3.org/2000/svg"
 width="1080.000000pt" height="1080.000000pt" viewBox="0 0 1080.000000 1080.000000"
 preserveAspectRatio="xMidYMid meet">

<g transform="translate(0.000000,1080.000000) scale(0.100000,-0.100000)"
fill="#000000" stroke="none">
<path d="M6976 8170 c-234 -37 -483 -162 -723 -364 -90 -75 -265 -251 -340
-341 l-41 -50 -33 31 c-102 95 -327 240 -504 325 -529 253 -1067 258 -1557 14
-147 -73 -241 -141 -340 -243 -101 -105 -181 -224 -247 -363 -117 -250 -165
-482 -164 -799 0 -419 97 -815 299 -1225 224 -454 528 -812 969 -1141 425
-316 865 -506 1323 -568 150 -21 464 -21 592 -1 269 44 498 162 696 359 164
164 207 249 168 331 -26 54 -67 77 -132 72 -51 -4 -56 -7 -120 -73 -127 -130
-315 -235 -507 -280 -124 -29 -382 -15 -454 25 -23 13 -20 14 234 56 121 20
235 41 253 47 76 23 131 103 118 171 -18 94 -96 144 -240 154 l-86 6 0 649 c0
581 2 654 16 684 30 63 116 84 169 42 28 -22 60 -82 51 -97 -3 -4 1 -17 9 -27
33 -45 65 26 41 94 -5 16 -4 22 8 22 51 0 104 66 92 115 -9 37 -67 85 -121
100 -27 8 -104 22 -170 30 -119 17 -176 38 -189 70 -3 8 22 71 56 140 51 106
62 137 66 193 3 48 0 78 -12 106 -21 50 -21 49 13 32 56 -30 104 -30 164 -3
107 49 144 153 90 257 -35 69 -90 103 -167 103 -119 0 -198 -94 -183 -216 2
-23 8 -50 12 -60 7 -17 5 -17 -31 2 -44 24 -133 28 -199 10 -136 -38 -404
-494 -469 -801 -9 -41 -23 -195 -31 -355 -8 -155 -21 -314 -29 -353 -18 -84
-63 -177 -179 -366 l-86 -141 -243 121 c-339 169 -550 306 -727 473 -83 78
-88 57 33 168 64 59 70 63 83 47 13 -15 13 -15 3 5 -5 12 -15 25 -22 29 -6 4
-8 3 -4 -4 3 -6 2 -13 -3 -17 -6 -3 -8 4 -6 16 3 13 -9 45 -29 78 -246 409
-370 860 -336 1226 18 192 74 377 152 502 192 306 362 462 584 533 105 33 253
51 355 43 l71 -6 -6 -28 c-5 -25 -3 -28 24 -27 37 1 70 -27 70 -59 0 -12 2
-23 4 -23 2 0 48 -9 102 -20 155 -32 288 -77 419 -142 71 -35 244 -150 270
-178 17 -19 19 -18 68 58 61 93 255 290 351 356 278 191 592 295 941 312 182
9 346 -30 492 -117 76 -46 204 -167 253 -241 44 -67 51 -69 19 -5 -39 77 -106
162 -192 244 -141 133 -295 223 -455 264 -89 23 -267 33 -356 19z m-1911 -429
c-6 -11 21 -41 37 -41 6 0 8 9 5 20 -4 15 0 20 14 20 22 0 24 -9 8 -44 -20
-42 -39 -41 -88 9 l-46 45 38 0 c21 0 36 -4 32 -9z m1018 -1991 c60 -12 67
-19 41 -40 -39 -33 -39 -37 -44 -730 l-5 -675 -99 -3 c-55 -1 -105 -1 -112 2
-9 3 -8 24 2 88 43 264 57 467 59 893 1 231 4 427 8 435 3 8 8 27 11 42 6 27
7 27 44 14 21 -8 64 -19 95 -26z m-404 -342 c17 -46 34 -247 34 -418 0 -130
-7 -237 -27 -415 -15 -132 -29 -242 -32 -244 -13 -13 -349 83 -387 112 -17 12
-13 21 60 133 111 167 186 299 211 369 32 88 62 238 69 335 6 95 24 150 48
150 8 0 19 -10 24 -22z m-1649 -178 c0 -5 -2 -10 -4 -10 -3 0 -8 5 -11 10 -3
6 -1 10 4 10 6 0 11 -4 11 -10z"/>
<path d="M4987 7664 c-10 -10 12 -44 28 -44 18 0 20 21 3 38 -13 13 -22 15
-31 6z"/>
<path d="M4936 7645 c-3 -8 -1 -15 4 -15 6 0 10 7 10 15 0 8 -2 15 -4 15 -2 0
-6 -7 -10 -15z"/>
<path d="M4818 7633 c12 -2 32 -2 45 0 12 2 2 4 -23 4 -25 0 -35 -2 -22 -4z"/>
<path d="M7990 7572 c-8 -2 -44 -18 -80 -35 -36 -16 -71 -30 -77 -30 -7 0 -13
-4 -13 -9 0 -5 -4 -7 -9 -3 -12 7 -64 -16 -54 -24 9 -7 19 -22 69 -109 142
-246 118 -564 -70 -933 -159 -315 -387 -610 -751 -976 -239 -241 -238 -243 55
-48 536 358 909 780 1044 1185 96 286 87 573 -27 840 -52 121 -68 148 -87 142z"/>
<path d="M6092 2903 c-105 -52 -136 -226 -60 -336 25 -34 60 -53 118 -61 44
-5 44 -5 10 5 -77 23 -113 86 -114 199 -1 77 24 151 61 180 30 24 91 26 131 6
26 -13 35 -26 60 -86 9 -21 11 -15 11 40 0 49 -2 61 -10 48 -9 -17 -12 -17
-49 2 -47 24 -113 25 -158 3z"/>
<path d="M4098 2900 c22 -9 22 -11 20 -187 l-3 -177 -25 -13 c-21 -11 -2 -13
129 -13 l153 0 -6 23 c-3 12 -6 38 -7 57 l-1 35 -8 -35 c-12 -50 -42 -70 -104
-70 -29 0 -57 5 -64 12 -7 7 -12 44 -12 95 l0 83 28 0 c37 0 51 -11 62 -46 6
-22 8 -10 9 51 0 75 -1 78 -12 45 -11 -31 -17 -35 -50 -38 l-38 -3 3 88 3 88
63 3 c72 3 88 -5 101 -52 8 -30 8 -30 12 17 l4 47 -140 -1 c-95 0 -133 -3
-117 -9z"/>
<path d="M4440 2847 c25 -13 25 -13 25 -162 0 -149 0 -149 -25 -162 -21 -11
-3 -13 120 -13 l145 0 -4 57 -3 57 -13 -38 c-7 -20 -15 -39 -17 -40 -31 -27
-115 -35 -136 -14 -8 8 -12 57 -12 154 0 136 1 144 22 158 21 15 18 16 -52 16
-67 0 -72 -2 -50 -13z"/>
<path d="M4767 2851 c31 -14 34 -36 31 -186 -3 -127 -4 -130 -28 -143 -22 -11
-11 -13 85 -10 120 3 159 17 199 71 29 39 34 149 9 197 -31 58 -70 73 -202 77
-81 2 -109 0 -94 -6z m218 -31 c60 -57 60 -214 0 -270 -20 -19 -37 -24 -78
-25 l-52 0 -3 150 c-1 82 0 156 3 163 9 23 100 10 130 -18z"/>
<path d="M5160 2847 c25 -13 25 -13 25 -162 0 -149 0 -149 -25 -162 -21 -11
-3 -13 120 -13 l145 0 -4 57 c-4 54 -5 56 -12 23 -10 -48 -41 -70 -98 -70 -26
0 -52 5 -59 12 -7 7 -12 40 -12 80 l0 68 40 0 c35 0 42 -4 54 -32 14 -33 14
-32 15 37 l1 70 -20 -32 c-16 -27 -26 -33 -55 -33 l-35 0 0 68 c0 40 5 73 12
80 17 17 89 15 116 -3 12 -9 26 -30 31 -48 9 -30 9 -29 10 21 l1 52 -137 0
c-118 0 -134 -2 -113 -13z"/>
<path d="M5500 2848 c25 -14 25 -14 25 -163 0 -149 0 -149 -25 -162 -22 -11
-16 -13 55 -13 71 0 77 2 55 13 -22 11 -25 19 -28 80 l-3 67 34 0 c47 0 64
-17 81 -84 8 -32 19 -63 25 -69 17 -17 70 -12 89 8 16 16 16 17 -6 5 -30 -15
-33 -12 -57 63 -17 54 -24 63 -51 71 l-31 9 41 21 c45 23 63 57 52 99 -11 47
-46 60 -169 64 -98 4 -109 3 -87 -9z m193 -29 c46 -56 3 -139 -73 -139 l-40 0
0 73 c0 45 5 78 13 86 17 18 78 6 100 -20z"/>
<path d="M6460 2713 c-35 -81 -75 -159 -88 -175 l-24 -28 54 1 c45 0 50 2 31
11 -28 13 -30 46 -6 91 9 18 17 34 18 37 2 22 60 139 65 133 15 -16 100 -217
100 -235 0 -10 -10 -23 -22 -28 -17 -6 -4 -9 51 -9 71 -1 73 0 53 17 -12 9
-51 85 -87 167 -36 83 -69 153 -73 157 -4 4 -36 -59 -72 -139z"/>
<path d="M6747 2850 c31 -13 34 -35 31 -185 -3 -127 -4 -130 -28 -142 -22 -11
-17 -13 50 -12 55 0 69 3 53 9 -21 8 -23 16 -23 80 l0 70 29 0 c50 0 60 -10
81 -81 24 -79 46 -98 93 -80 15 6 27 16 27 22 0 8 -5 8 -15 -1 -21 -17 -30 -7
-52 60 -14 42 -25 58 -48 70 l-31 14 41 21 c44 22 62 56 51 98 -11 44 -57 61
-176 64 -73 2 -98 0 -83 -7z m168 -12 c16 -7 29 -25 36 -47 20 -67 -16 -111
-92 -111 l-29 0 0 78 c0 43 3 82 7 85 10 11 49 8 78 -5z"/>
<path d="M7108 2848 c21 -11 22 -15 22 -165 0 -150 -1 -154 -22 -163 -16 -6
24 -9 120 -9 l142 -1 -1 58 -1 57 -15 -43 c-17 -49 -40 -62 -109 -62 -39 0
-46 3 -54 26 -6 14 -10 50 -10 80 l0 55 42 -3 c34 -2 45 -8 55 -28 11 -23 13
-19 12 40 l0 65 -14 -33 c-13 -30 -18 -33 -52 -30 l-38 3 0 68 c0 75 8 87 60
87 57 0 76 -11 95 -54 l19 -41 0 53 1 52 -137 -1 c-107 0 -133 -3 -115 -11z"/>
<path d="M6296 2615 c-4 -19 -19 -49 -34 -66 -23 -28 -24 -31 -5 -21 30 16 41
15 46 -5 3 -10 5 15 6 55 1 79 -3 91 -13 37z"/>
<path d="M6208 2513 c7 -3 16 -2 19 1 4 3 -2 6 -13 5 -11 0 -14 -3 -6 -6z"/>
</g>
</svg>
